<?xml version="1.0" encoding="UTF-8" standalone="no"?>
<svg width="162px" height="43px" viewBox="0 0 162 43" version="1.1" xmlns="http://www.w3.org/2000/svg" xmlns:xlink="http://www.w3.org/1999/xlink">
    <!-- Generator: Sketch 40.3 (33839) - http://www.bohemiancoding.com/sketch -->
    <title>littleBits-logo</title>
    <desc>Created with Sketch.</desc>
    <defs></defs>
    <g id="Logo" stroke="none" stroke-width="1" fill="none" fill-rule="evenodd">
        <g id="littleBits-logo" fill="#5F027E">
            <g id="littlebits-logo-b6620b4600aba317538a865cf9106fbbbe36cf64adda5ea630db4e7deb975c3b">
                <path d="M4.5,0.6 L3.1,0.6 C1.1,0.6 0.9,0.8 0.9,2.7 L0.9,39.9 C0.9,41.8 1.1,42 3.1,42 L4.5,42 C6.5,42 6.7,41.8 6.7,39.9 L6.7,2.7 C6.7,0.8 6.5,0.6 4.5,0.6" id="Shape"></path>
                <path d="M18.5,8.2 C18.5,6.2 16.9,4.6 14.8,4.6 C12.7,4.6 11,6.2 11,8.2 C11,9.9 12.2,11.3 13.9,11.7 L13.9,18.1 C12.1,18.1 11.9,18.3 11.9,20.2 L11.9,39.9 C11.9,41.8 12.1,42 14.1,42 L15.4,42 C17.4,42 17.6,41.8 17.6,39.9 L17.6,20.2 C17.6,18.3 17.4,18.1 15.6,18.1 L15.6,11.7 C17.2,11.3 18.5,9.9 18.5,8.2" id="Shape"></path>
                <path d="M33.1,18.1 L30.8,18.1 L30.8,11.5 C30.8,9.6 30.6,9.4 28.6,9.4 L27.2,9.4 C25.2,9.4 25,9.6 25,11.5 L25,18.1 L24.7,18.1 C22.8,18.1 22.6,18.3 22.6,20.2 L22.6,21.2 C22.6,23.1 22.8,23.3 24.7,23.3 L25,23.3 L25,39.9 C25,41.8 25.2,42 27.2,42 L28.6,42 C30.6,42 30.8,41.8 30.8,39.9 L30.8,23.3 L33.1,23.3 C35.1,23.3 35.3,23.1 35.3,21.2 L35.3,20.2 C35.3,18.3 35.1,18.1 33.1,18.1" id="Shape"></path>
                <path d="M49.1,18.1 L46.8,18.1 L46.8,11.5 C46.8,9.6 46.6,9.4 44.6,9.4 L43.2,9.4 C41.2,9.4 41,9.6 41,11.5 L41,18.1 L40.7,18.1 C38.8,18.1 38.6,18.3 38.6,20.2 L38.6,21.2 C38.6,23.1 38.8,23.3 40.7,23.3 L41,23.3 L41,39.9 C41,41.8 41.2,42 43.2,42 L44.6,42 C46.6,42 46.8,41.8 46.8,39.9 L46.8,23.3 L49.1,23.3 C51.1,23.3 51.3,23.1 51.3,21.2 L51.3,20.2 C51.3,18.3 51.1,18.1 49.1,18.1" id="Shape"></path>
                <path d="M58.3,0.6 L56.9,0.6 C54.9,0.6 54.7,0.8 54.7,2.7 L54.7,39.9 C54.7,41.8 54.9,42 56.9,42 L58.3,42 C60.3,42 60.5,41.8 60.5,39.9 L60.5,2.7 C60.5,0.8 60.3,0.6 58.3,0.6" id="Shape"></path>
                <path d="M70.2,26.9 C70.9,24.2 73.1,22.5 75.9,22.5 C78.8,22.5 80.9,24.1 81.7,26.9 L70.2,26.9 L70.2,26.9 Z M87.6,29.9 C87.6,22.4 83.1,17.5 76,17.5 C68.7,17.5 63.9,22.4 63.9,30.3 C63.9,37.7 68.8,42.8 76.1,42.8 C79.8,42.8 83.1,41.5 85.4,39.1 C86.6,37.9 87.3,36.8 87.3,36.3 C87.3,35.7 87.1,35.4 85.9,34.8 L84.8,34.2 C84,33.7 83.7,33.6 83.4,33.6 C82.9,33.6 82.5,33.8 82.2,34.4 C80.7,36.7 78.7,37.8 76.3,37.8 C72.7,37.8 70.2,35.3 69.9,31.4 L85.4,31.4 C87.2,31.4 87.6,31.1 87.6,29.9 L87.6,29.9 Z" id="Shape"></path>
                <path d="M101.7,36.6 L98.1,36.6 L98.1,25.2 L101.1,25.2 C106.8,25.2 109.6,27.1 109.6,31 C109.6,34.5 106.8,36.6 101.7,36.6 L101.7,36.6 Z M98.1,9.4 L100.2,9.4 C104.2,9.4 106.4,11.3 106.4,14.8 C106.4,18.4 104.2,20.4 100,20.4 L98.2,20.4 L98.2,9.4 L98.1,9.4 Z M108.7,21.6 C110.9,19.7 111.9,17.5 111.9,14.8 C111.9,11.3 110.1,7.8 107.4,6 C105.3,4.6 102.7,4.1 98,4.1 L94.3,4.1 C92.3,4.1 92.1,4.3 92.1,6.2 L92.1,39.8 C92.1,41.7 92.3,41.9 94.3,41.9 L101.1,41.9 C106.4,41.9 108.9,41.2 111.4,39.2 C113.9,37.2 115.3,34.3 115.3,31 C115.4,26.7 112.8,23 108.7,21.6 L108.7,21.6 Z" id="Shape"></path>
                <path d="M125.4,8.2 C125.4,6.2 123.8,4.6 121.7,4.6 C119.6,4.6 117.9,6.2 117.9,8.2 C117.9,9.9 119.2,11.3 120.8,11.7 L120.8,18.1 C119,18.1 118.8,18.3 118.8,20.2 L118.8,39.9 C118.8,41.8 119,42 121,42 L122.4,42 C124.4,42 124.6,41.8 124.6,39.9 L124.6,20.2 C124.6,18.3 124.4,18.1 122.6,18.1 L122.6,11.7 C124.2,11.3 125.4,9.9 125.4,8.2" id="Shape"></path>
                <path d="M139.1,18.1 L136.8,18.1 L136.8,11.5 C136.8,9.6 136.6,9.4 134.6,9.4 L133.2,9.4 C131.2,9.4 131,9.6 131,11.5 L131,18.1 L130.7,18.1 C128.8,18.1 128.6,18.3 128.6,20.2 L128.6,21.2 C128.6,23.1 128.8,23.3 130.7,23.3 L131,23.3 L131,39.9 C131,41.8 131.2,42 133.2,42 L134.6,42 C136.6,42 136.8,41.8 136.8,39.9 L136.8,23.3 L139.1,23.3 C141.1,23.3 141.3,23.1 141.3,21.2 L141.3,20.2 C141.3,18.3 141.1,18.1 139.1,18.1" id="Shape"></path>
                <path d="M152.1,26.8 C149.4,25.6 148.8,25.1 148.8,24.1 C148.8,23.1 149.6,22.4 150.7,22.4 C151.6,22.4 152,22.6 152.8,23.6 C153.1,24 153.4,24.2 153.9,24.2 C154.2,24.2 154.3,24.1 155.3,23.6 L156.4,23.1 C157.6,22.5 157.8,22.2 157.8,21.6 C157.8,19.7 154.2,17.4 151.2,17.4 C146.8,17.4 143.6,20.5 143.6,24.6 C143.6,27.5 144.8,29 148.4,30.8 C153.8,33.4 154.1,33.6 154.1,35.2 C154.1,36.8 152.9,37.8 151.2,37.8 C150.1,37.8 149,37.3 148.5,36.6 C147.4,35.1 147.3,35 146.7,35.1 C146.5,35.1 146.1,35.3 145.4,35.6 L144.3,36.1 C143,36.7 142.8,36.9 142.8,37.5 C142.8,37.9 143,38.5 143.6,39.1 C145.2,41.4 148.1,42.8 151.3,42.8 C156.2,42.8 160.1,39.2 160.1,34.7 C159.8,31.1 158.2,29.6 152.1,26.8" id="Shape"></path>
                <path d="M159.4,14.9 C159.4,14.8 159.4,14.8 159.4,14.9 C159.3,14.8 159.3,14.8 159.2,14.8 L158.7,14.8 L158.6,14.8 C158.6,14.8 158.6,14.8 158.6,14.9 L158.2,17.3 L158.2,17.4 C158.2,17.4 158.2,17.4 158.2,17.5 L158.3,17.5 L158.7,17.5 L158.8,17.5 C158.8,17.5 158.8,17.5 158.8,17.4 L159,16 L159.6,17.5 C159.6,17.5 159.6,17.6 159.7,17.6 L159.8,17.6 L159.9,17.6 L160,17.6 C160,17.6 160,17.6 160.1,17.5 L160.7,16 L160.9,17.4 L160.9,17.5 L161,17.5 L161.4,17.5 L161.5,17.5 C161.5,17.5 161.5,17.5 161.5,17.4 C161.5,17.4 161.5,17.4 161.5,17.3 L161.1,14.9 L161.1,14.8 L161,14.8 L160.5,14.8 L160.4,14.8 C160.4,14.8 160.4,14.8 160.3,14.9 L159.7,16.2 L159.4,14.9 L159.4,14.9 Z M157.9,15.4 L158,15.4 L158,15.3 L158,15 L158,14.9 L157.9,14.9 L156.3,14.9 L156.2,14.9 L156.2,15 L156.2,15.3 L156.2,15.4 L156.3,15.4 L156.8,15.4 L156.8,17.4 L156.8,17.5 L156.9,17.5 L157.3,17.5 L157.4,17.5 L157.4,17.4 L157.4,15.4 L157.9,15.4 L157.9,15.4 Z" id="Shape"></path>
            </g>
        </g>
    </g>
</svg>